#!OML:ASF E:\Style4\Style4.ASF
:FULLY-SPECIFIED
:DEGREES
1112
root -0.0137762 17.15 -2.84463 4.7373 -7.49401 3.2566
lowerback 18.21 3.33581 -0.0437254
upperback 12.2316 4.26423 0.385514
thorax 2.94206 2.10354 -0.213973
lowerneck 5.15913 -4.19751 -5.6789
upperneck -1.29237 -5.97037 -1.07477
head -1.12596 -2.92225 0.753716
rclavicle 4.69132e-014 -8.74653e-015
rhumerus -9.4186 32.1059 -85.1789
rradius 52.236
rwrist -19.8496
rhand -4.7148 13.3557
rfingers 7.12502
rthumb 21.0674 -15.5199
lclavicle 4.69132e-014 -8.74653e-015
lhumerus 17.2211 6.51566 41.79
lradius 51.7836
lwrist 19.8721
lhand -5.57516 25.2945
lfingers 7.12502
lthumb 20.2407 54.2599
rfemur -33.8708 1.96603 16.7194
rtibia 48.723
rfoot -19.485 -7.95129
rtoes -8.53682
lfemur -30.5064 3.62451 -22.4268
ltibia 47.0337
lfoot -21.7432 11.2372
ltoes -13.6054
1113
root -0.0135702 17.1309 -2.85308 4.57833 -7.45468 3.02539
lowerback 18.3794 3.32166 -0.220721
upperback 12.2967 4.21934 0.228077
thorax 2.92781 2.07657 -0.281498
lowerneck 5.13447 -4.08606 -5.58247
upperneck -1.35278 -5.79555 -0.312496
head -1.12702 -2.84913 0.972947
rclavicle 2.8625e-014 -3.02153e-014
rhumerus -9.94781 32.7149 -84.4039
rradius 53.0138
rwrist -21.2448
rhand -5.85597 13.3485
rfingers 7.12502
rthumb 19.9708 -15.6453
lclavicle 2.8625e-014 -3.02153e-014
lhumerus 18.549 8.45639 44.6526
lradius 52.5751
lwrist 20.4819
lhand -7.23055 25.3179
lfingers 7.12502
lthumb 18.6491 54.444
rfemur -33.849 2.02925 16.9827
rtibia 49.0283
rfoot -19.6273 -8.00279
rtoes -8.13483
lfemur -30.5584 3.73613 -22.1485
ltibia 47.4043
lfoot -21.8315 11.0459
ltoes -13.7706
1114
root -0.0144974 17.1144 -2.86235 4.43778 -7.43698 2.87729
lowerback 18.5459 3.32005 -0.484033
upperback 12.3379 4.17796 0.0291509
thorax 2.88633 2.04795 -0.345947
lowerneck 5.11359 -3.9687 -5.46121
upperneck -1.39306 -5.61135 0.433755
head -1.12529 -2.77158 1.18404
rclavicle -4.25399e-014 3.33958e-014
rhumerus -10.4562 33.3672 -83.6148
rradius 53.7148
rwrist -22.6831
rhand -6.92242 13.364
rfingers 7.12502
rthumb 18.9454 -15.7333
lclavicle -4.25399e-014 3.33958e-014
lhumerus 19.6764 9.90616 47.494
lradius 53.7957
lwrist 21.72
lhand -8.16204 25.0784
lfingers 7.12502
lthumb 17.7529 54.2881
rfemur -33.841 2.07462 17.16
rtibia 49.2915
rfoot -19.7561 -8.06626
rtoes -7.94957
lfemur -30.6075 3.89394 -21.9584
ltibia 47.7274
lfoot -21.9551 10.7673
ltoes -13.5183
1115
root -0.012245 17.0983 -2.87001 4.35788 -7.30359 2.95401
lowerback 18.589 3.28324 -0.932084
upperback 12.3586 4.06773 -0.222394
thorax 2.87659 1.9766 -0.345928
lowerneck 5.09528 -3.87755 -5.40834
upperneck -1.36382 -5.46337 1.25827
head -1.09861 -2.71415 1.43249
rclavicle 9.93923e-015 -1.47101e-014
rhumerus -10.9963 34.1231 -82.8104
rradius 54.3796
rwrist -24.0424
rhand -8.07107 13.3159
rfingers 7.12502
rthumb 17.8405 -15.8857
lclavicle 9.93923e-015 -1.47101e-014
lhumerus 21.0515 10.9552 50.3146
lradius 54.8114
lwrist 23.2807
lhand -7.91556 24.7376
lfingers 7.12502
lthumb 17.9901 53.9256
rfemur -33.9065 1.92942 17.083
rtibia 49.537
rfoot -19.8621 -8.09825
rtoes -7.91601
lfemur -30.7013 3.99107 -22.0631
ltibia 47.9799
lfoot -21.9149 10.6004
ltoes -13.895
1116
root -0.00883572 17.082 -2.8755 4.34424 -7.12029 2.86557
lowerback 18.5761 3.21564 -1.22494
upperback 12.3564 3.94074 -0.425306
thorax 2.87741 1.90406 -0.37607
lowerneck 5.09191 -3.81047 -5.38795
upperneck -1.32969 -5.34911 2.1668
head -1.07032 -2.67456 1.71683
rclavicle -1.86858e-014 1.55052e-014
rhumerus -11.5433 34.9355 -81.9577
rradius 55.0178
rwrist -25.3686
rhand -8.87097 13.1513
rfingers 7.12502
rthumb 17.0706 -16.1187
lclavicle -1.86858e-014 1.55052e-014
lhumerus 22.6785 11.9158 53.2609
lradius 55.3977
lwrist 24.244
lhand -7.37701 24.8372
lfingers 7.12502
lthumb 18.5082 53.9767
rfemur -33.986 1.79492 17.1796
rtibia 49.7361
rfoot -19.9452 -8.12353
rtoes -7.72996
lfemur -30.837 4.04466 -22.0002
ltibia 48.194
lfoot -21.8508 10.4938
ltoes -14.2512
